<?xml version="1.0" encoding="iso-8859-1"?>
<!-- Generator: Adobe Illustrator 19.0.0, SVG Export Plug-In . SVG Version: 6.00 Build 0)  -->
<svg version="1.1" id="Capa_1" xmlns="http://www.w3.org/2000/svg" xmlns:xlink="http://www.w3.org/1999/xlink" x="0px" y="0px"
	 viewBox="0 0 512 512" style="enable-background:new 0 0 512 512;" xml:space="preserve">
<g>
	<g>
		<path d="M137.436,263.365v99.043h168.085v-99.043H137.436z M275.521,332.408H167.436v-39.043h108.085V332.408z"/>
	</g>
</g>
<g>
	<g>
		<path d="M394.085,127.645c-6.928,0-13.528,1.43-19.521,4.011V49.521C374.563,22.215,352.348,0,325.042,0
			c-13.411,0-25.595,5.359-34.521,14.048C281.594,5.359,269.411,0,256,0c-13.411,0-25.595,5.359-34.521,14.048
			C212.552,5.359,200.369,0,186.957,0c-13.411,0-25.595,5.359-34.521,14.048C143.51,5.359,131.326,0,117.915,0
			C90.609,0,68.394,22.215,68.394,49.521v393.437h34.521V512h237.127v-69.042h34.521V339.12
			c39.208-7.094,69.043-41.479,69.043-82.701v-79.253C443.606,149.859,421.391,127.645,394.085,127.645z M236.479,49.521
			C236.479,38.758,245.236,30,256,30c10.765,0,19.521,8.758,19.521,19.521v133.295h-39.042V49.521z M167.436,49.521
			c0-10.763,8.758-19.521,19.521-19.521c10.764,0,19.521,8.758,19.521,19.521v133.295h-39.042V49.521z M98.394,49.521
			c0-10.763,8.757-19.521,19.521-19.521c10.764,0,19.521,8.758,19.521,19.521v133.295H98.394V49.521z M310.042,482H132.915v-39.042
			h177.127V482z M344.563,412.958H98.394V212.816h246.169V412.958z M344.563,177.166v5.65h-39.042V49.521
			c0-10.763,8.757-19.521,19.521-19.521c10.765,0,19.521,8.758,19.521,19.521V177.166z M374.563,308.327V177.166
			c0-10.765,8.758-19.521,19.521-19.521c10.765,0,19.521,8.757,19.521,19.521v79.253h0.001
			C413.606,281.013,397.085,301.808,374.563,308.327z"/>
	</g>
</g>
<g>
</g>
<g>
</g>
<g>
</g>
<g>
</g>
<g>
</g>
<g>
</g>
<g>
</g>
<g>
</g>
<g>
</g>
<g>
</g>
<g>
</g>
<g>
</g>
<g>
</g>
<g>
</g>
<g>
</g>
</svg>
