<?xml version="1.0" encoding="iso-8859-1"?>
<!-- Generator: Adobe Illustrator 19.0.0, SVG Export Plug-In . SVG Version: 6.00 Build 0)  -->
<svg version="1.1" id="Capa_1" xmlns="http://www.w3.org/2000/svg" xmlns:xlink="http://www.w3.org/1999/xlink" x="0px" y="0px"
	 viewBox="0 0 512 512" style="enable-background:new 0 0 512 512;" xml:space="preserve">
<g>
	<g>
		<path d="M386.98,267.552v-30.048h9.786c35.258,0,63.941-28.685,63.941-63.942v-39.785h-39.786c-12.464,0-24.097,3.598-33.941,9.79
			v-39.839h9.786c35.258,0,63.941-28.684,63.941-63.941V0h-39.786c-19.624,0-37.203,8.893-48.942,22.853
			C360.241,8.893,342.662,0,323.038,0h-39.786v39.786c0,35.258,28.685,63.941,63.942,63.941h9.786v39.839
			c-9.844-6.193-21.478-9.791-33.942-9.791h-39.786v39.785c0,35.258,28.685,63.942,63.942,63.942h9.786v30.048H155.02v-30.048h9.786
			c35.258,0,63.942-28.685,63.942-63.942v-39.785h-39.786c-12.464,0-24.098,3.598-33.942,9.791v-39.839h9.786
			c35.258,0,63.942-28.684,63.942-63.941V0h-39.786c-19.624,0-37.203,8.893-48.942,22.853C128.281,8.893,110.702,0,91.078,0H51.292
			v39.786c0,35.258,28.684,63.941,63.941,63.941h9.786v39.839c-9.844-6.192-21.477-9.79-33.941-9.79H51.292v39.785
			c0,35.258,28.684,63.942,63.941,63.942h9.786v30.048H0v100.056h31.96L51.976,512h408.049l20.016-144.393H512V267.552H386.98z
			 M386.981,197.717c-0.001-18.715,15.225-33.941,33.941-33.941h9.786v9.785c0,18.716-15.226,33.942-33.941,33.942h-9.786V197.717z
			 M386.981,63.941C386.98,45.226,402.206,30,420.922,30h9.786v9.786c0,18.716-15.226,33.941-33.941,33.941h-9.786V63.941z
			 M155.02,63.941C155.02,45.226,170.246,30,188.962,30h9.786v9.786c0,18.716-15.227,33.941-33.942,33.941h-9.786V63.941z
			 M155.02,197.717c0-18.715,15.226-33.941,33.942-33.941h9.786v9.785c0,18.716-15.227,33.942-33.942,33.942h-9.786V197.717z
			 M347.194,73.727L347.194,73.727c-18.716,0.001-33.942-15.225-33.942-33.94V30h9.786c18.716,0,33.942,15.226,33.942,33.941v9.786
			H347.194z M347.194,207.504L347.194,207.504c-18.716,0-33.942-15.227-33.942-33.942v-9.785h9.786
			c18.716,0,33.942,15.226,33.942,33.941v9.786H347.194z M115.233,73.727L115.233,73.727c-18.716,0.001-33.941-15.225-33.941-33.94
			V30h9.786c18.716,0,33.941,15.226,33.941,33.941v9.786H115.233z M115.233,207.504L115.233,207.504
			c-18.716,0-33.941-15.227-33.941-33.942v-9.785h9.786c18.716,0,33.941,15.226,33.941,33.941v9.786H115.233z M433.896,482H78.104
			L62.248,367.607h387.505L433.896,482z M482,337.607H30v-40.056h452V337.607z"/>
	</g>
</g>
<g>
</g>
<g>
</g>
<g>
</g>
<g>
</g>
<g>
</g>
<g>
</g>
<g>
</g>
<g>
</g>
<g>
</g>
<g>
</g>
<g>
</g>
<g>
</g>
<g>
</g>
<g>
</g>
<g>
</g>
</svg>
