<?xml version="1.0" encoding="iso-8859-1"?>
<!-- Generator: Adobe Illustrator 19.0.0, SVG Export Plug-In . SVG Version: 6.00 Build 0)  -->
<svg version="1.1" id="Capa_1" xmlns="http://www.w3.org/2000/svg" xmlns:xlink="http://www.w3.org/1999/xlink" x="0px" y="0px"
	 viewBox="0 0 511.954 511.954" style="enable-background:new 0 0 511.954 511.954;" xml:space="preserve">
<g>
	<g>
		<path d="M406.988,0L41.937,365.05l146.904,146.904l118.036-118.037l-23.581-23.581l21.104-9.087l0.494-35.371l32.489-13.992
			l0.493-35.368l32.486-13.99l0.494-35.369l32.487-13.989l0.494-35.37l32.488-13.991l0.491-35.365l32.486-13.988l0.715-51.425
			L406.988,0z M188.841,469.528L84.364,365.05l75.61-75.61l104.477,104.477L188.841,469.528z M439.577,94.591l-32.486,13.988
			l-0.491,35.367l-32.486,13.989l-0.494,35.37l-32.487,13.989l-0.494,35.369l-32.488,13.99l-0.493,35.37l-32.487,13.992
			l-0.494,35.369l-14.211,6.119l-79.277-79.278L406.99,42.424l32.856,32.857L439.577,94.591z"/>
	</g>
</g>
<g>
</g>
<g>
</g>
<g>
</g>
<g>
</g>
<g>
</g>
<g>
</g>
<g>
</g>
<g>
</g>
<g>
</g>
<g>
</g>
<g>
</g>
<g>
</g>
<g>
</g>
<g>
</g>
<g>
</g>
</svg>
