<?xml version="1.0" encoding="iso-8859-1"?>
<!-- Generator: Adobe Illustrator 19.0.0, SVG Export Plug-In . SVG Version: 6.00 Build 0)  -->
<svg version="1.1" id="Capa_1" xmlns="http://www.w3.org/2000/svg" xmlns:xlink="http://www.w3.org/1999/xlink" x="0px" y="0px"
	 viewBox="0 0 511.999 511.999" style="enable-background:new 0 0 511.999 511.999;" xml:space="preserve">
<g>
	<g>
		<path d="M165.025,150.034c-24.825-0.001-45.023,20.195-45.023,45.022c0,24.825,20.198,45.023,45.023,45.023
			s45.023-20.198,45.023-45.023S189.851,150.034,165.025,150.034z M165.025,210.079c-8.285,0-15.024-6.74-15.024-15.024
			s6.74-15.023,15.024-15.023c8.284-0.001,15.024,6.738,15.024,15.023C180.049,203.339,173.309,210.079,165.025,210.079z"/>
	</g>
</g>
<g>
	<g>
		<path d="M511.993,36.937L402.877,21.925V0h-29.999v30.035H165.025c-90.993,0-165.02,74.027-165.02,165.02v316.944h89.998V342.014
			c22.52,11.544,48.025,18.062,75.023,18.062c90.993,0,165.02-74.027,165.02-165.019c0-26.451-6.172-51.948-18.028-75.023h60.86
			v30.035h29.999v-21.925l109.116-15.012L511.993,36.937L511.993,36.937z M60.003,482.001H30.003V289.818
			c8.519,12.102,18.617,23.016,29.999,32.43V482.001z M372.877,90.034H165.025v-0.001c-57.909,0.001-105.022,47.113-105.022,105.023
			c0,57.909,47.113,105.021,105.022,105.021s105.022-47.112,105.022-105.021c0-29.364-12.119-55.947-31.61-75.023h38.798
			c14.949,22.236,22.812,48.021,22.812,75.023c0,74.45-60.57,135.02-135.021,135.02s-135.022-60.57-135.022-135.02
			c0-74.451,60.571-135.021,135.022-135.021h207.851V90.034z M240.047,195.056c0,41.367-33.655,75.021-75.022,75.021
			c-41.368,0-75.022-33.654-75.022-75.021c0-41.367,33.655-75.022,75.022-75.022C206.392,120.033,240.047,153.688,240.047,195.056z
			 M481.994,86.976L481.994,86.976l-79.117,10.885V52.208l79.117,10.885V86.976z"/>
	</g>
</g>
<g>
</g>
<g>
</g>
<g>
</g>
<g>
</g>
<g>
</g>
<g>
</g>
<g>
</g>
<g>
</g>
<g>
</g>
<g>
</g>
<g>
</g>
<g>
</g>
<g>
</g>
<g>
</g>
<g>
</g>
</svg>
