<?xml version="1.0" encoding="iso-8859-1"?>
<!-- Generator: Adobe Illustrator 19.0.0, SVG Export Plug-In . SVG Version: 6.00 Build 0)  -->
<svg version="1.1" id="Capa_1" xmlns="http://www.w3.org/2000/svg" xmlns:xlink="http://www.w3.org/1999/xlink" x="0px" y="0px"
	 viewBox="0 0 512 512" style="enable-background:new 0 0 512 512;" xml:space="preserve">
<g>
	<g>
		<path d="M501.892,80.52l-6.889-16.627l-80.084,33.172l33.172-80.084l-16.627-6.889c-67.534-27.971-145.235,4.212-173.21,71.746
			c-10.934,26.396-13.014,55.27-6.18,82.679l-51.221,21.216l-11.535-27.847l-152.13,63.015C6.513,233.607-8.106,268.898,4.6,299.573
			c9.596,23.164,32.066,37.173,55.708,37.171c7.664-0.001,15.455-1.474,22.964-4.584l164.825-68.272l-68.272,164.825
			c-12.705,30.673,1.913,65.966,32.586,78.672c7.43,3.077,15.235,4.616,23.042,4.616c7.807,0,15.613-1.539,23.042-4.616
			c14.859-6.155,26.432-17.728,32.587-32.588l63.015-152.129l-27.847-11.536l21.23-51.256c27.078,6.712,56.064,4.872,82.664-6.146
			C497.68,225.756,529.865,148.056,501.892,80.52z M71.791,304.442c-15.39,6.376-33.101-0.959-39.475-16.35
			c-6.375-15.391,0.96-33.099,16.351-39.475l124.414-51.534l5.794,13.988l17.328,41.837L71.791,304.442z M285.972,93.319
			c10.483-25.311,30.196-45.025,55.509-55.509c21.577-8.938,45.022-10.257,67.149-3.956l-32.909,79.447l-95.516,39.564
			C276.173,132.995,278.097,112.328,285.972,93.319z M263.365,463.315c-3.088,7.456-8.895,13.263-16.351,16.351
			c-7.456,3.089-15.667,3.089-23.123,0c-15.391-6.375-22.725-24.083-16.35-39.475l51.533-124.413l41.837,17.328l13.988,5.794
			L263.365,463.315z M298.533,299.65l-27.977-11.588l16.738-40.411l17.107-7.086c4.811,3.296,9.806,6.241,14.941,8.847
			L298.533,299.65z M418.665,226.013c-34.294,14.207-73.722,8.721-102.9-14.314l-6.906-5.452l-84.936,35.182l-11.588-27.977
			l265.789-110.094C492.102,152.685,467.166,205.923,418.665,226.013z"/>
	</g>
</g>
<g>
</g>
<g>
</g>
<g>
</g>
<g>
</g>
<g>
</g>
<g>
</g>
<g>
</g>
<g>
</g>
<g>
</g>
<g>
</g>
<g>
</g>
<g>
</g>
<g>
</g>
<g>
</g>
<g>
</g>
</svg>
