<?xml version="1.0" encoding="iso-8859-1"?>
<!-- Generator: Adobe Illustrator 19.0.0, SVG Export Plug-In . SVG Version: 6.00 Build 0)  -->
<svg version="1.1" id="Capa_1" xmlns="http://www.w3.org/2000/svg" xmlns:xlink="http://www.w3.org/1999/xlink" x="0px" y="0px"
	 viewBox="0 0 512 512" style="enable-background:new 0 0 512 512;" xml:space="preserve">
<g>
	<g>
		<path d="M361.952,0v30.024H150.048V0H60v512h90.048v-30.024h211.904V512H452V0H361.952z M120.048,482H90V30h30.048
			C120.048,30,120.048,482,120.048,482z M361.952,451.976H150.048v-30.048h211.904V451.976z M361.952,391.928H150.048v-30.586
			h211.904V391.928z M361.952,331.342H150.048v-30.049h211.904V331.342z M361.952,271.293H150.048v-30.586h211.904V271.293z
			 M361.952,210.707H150.048v-30.049h211.904V210.707z M361.952,150.658H150.048v-30.586h211.904V150.658z M361.952,90.072H150.048
			V60.024h211.904V90.072z M422,482h-30.048V30H422V482z"/>
	</g>
</g>
<g>
</g>
<g>
</g>
<g>
</g>
<g>
</g>
<g>
</g>
<g>
</g>
<g>
</g>
<g>
</g>
<g>
</g>
<g>
</g>
<g>
</g>
<g>
</g>
<g>
</g>
<g>
</g>
<g>
</g>
</svg>
