<?xml version="1.0" encoding="iso-8859-1"?>
<!-- Generator: Adobe Illustrator 19.0.0, SVG Export Plug-In . SVG Version: 6.00 Build 0)  -->
<svg version="1.1" id="Capa_1" xmlns="http://www.w3.org/2000/svg" xmlns:xlink="http://www.w3.org/1999/xlink" x="0px" y="0px"
	 viewBox="0 0 512 512" style="enable-background:new 0 0 512 512;" xml:space="preserve">
<g>
	<g>
		<path d="M271,320.096v-30.048h18.618c44.874,0,81.382-36.508,81.382-81.382v-48.618h-48.618c-19.471,0-37.36,6.88-51.382,18.328
			V130h18.618C334.492,130,371,93.492,371,48.618V0h-48.618C295.004,0,270.759,13.604,256,34.391
			C241.241,13.604,216.996,0,189.618,0H141v48.618C141,93.492,177.508,130,222.382,130H241v48.376
			c-14.022-11.448-31.911-18.328-51.382-18.328H141v48.618c0,44.874,36.508,81.382,81.382,81.382H241v30.048H110.89v30h24.779
			L160.759,512h190.482l25.09-161.904h24.779v-30H271z M271,81.382C271,53.05,294.05,30,322.382,30H341v18.618
			C341,76.95,317.95,100,289.618,100H271V81.382z M271,241.43c0-28.332,23.05-51.382,51.382-51.382H341v18.618
			c0,28.332-23.05,51.382-51.382,51.382H271V241.43z M222.382,100C194.05,100,171,76.95,171,48.618V30h18.618
			C217.95,30,241,53.05,241,81.382V100H222.382z M222.382,260.048c-28.332,0-51.382-23.05-51.382-51.382v-18.618h18.618
			c28.332,0,51.382,23.05,51.382,51.382v18.618H222.382z M325.532,482H186.468l-20.44-131.904h179.945L325.532,482z"/>
	</g>
</g>
<g>
</g>
<g>
</g>
<g>
</g>
<g>
</g>
<g>
</g>
<g>
</g>
<g>
</g>
<g>
</g>
<g>
</g>
<g>
</g>
<g>
</g>
<g>
</g>
<g>
</g>
<g>
</g>
<g>
</g>
</svg>
