<?xml version="1.0" encoding="iso-8859-1"?>
<!-- Generator: Adobe Illustrator 19.0.0, SVG Export Plug-In . SVG Version: 6.00 Build 0)  -->
<svg version="1.1" id="Capa_1" xmlns="http://www.w3.org/2000/svg" xmlns:xlink="http://www.w3.org/1999/xlink" x="0px" y="0px"
	 viewBox="0 0 512.002 512.002" style="enable-background:new 0 0 512.002 512.002;" xml:space="preserve">
<g>
	<g>
		<path d="M506.258,126.153l-5.74-13.858l-172.093,71.283l71.283-172.093l-13.858-5.74c-38.434-15.922-82.653,2.396-98.573,40.83
			l-77.023,185.951l-6.712,2.78l-95.33,6.775L27.941,275.33c-11.159,4.622-19.851,13.313-24.474,24.474
			c-4.622,11.16-4.622,23.452,0,34.611c4.623,11.16,13.314,19.852,24.475,24.475c5.58,2.312,11.441,3.467,17.306,3.467
			c5.862,0,11.727-1.156,17.306-3.467l75.771-31.386l49.707-3.532l-3.533,49.706l-31.386,75.771
			c-9.542,23.037,1.437,49.543,24.475,59.086c5.58,2.312,11.441,3.467,17.306,3.467c5.862,0,11.726-1.156,17.306-3.467
			c11.16-4.623,19.852-13.314,24.474-24.474l33.249-80.271l6.775-95.33l2.78-6.711l185.952-77.024
			C503.862,208.806,522.178,164.586,506.258,126.153z M314.993,58.055c7.579-18.298,25.803-29.037,44.544-27.984l-70.31,169.743
			L249.45,216.29L314.993,58.055z M51.073,331.173c-3.756,1.557-7.895,1.557-11.65,0c-3.757-1.556-6.683-4.481-8.238-8.238
			c-1.557-3.757-1.557-7.894,0-11.65c1.556-3.756,4.481-6.682,8.237-8.237l64.163-26.577l11.65,28.126L51.073,331.173z
			 M208.955,472.581c-1.556,3.756-4.481,6.682-8.237,8.237c-3.758,1.557-7.895,1.557-11.65,0
			c-7.755-3.212-11.45-12.134-8.238-19.889l26.577-64.162l28.126,11.65L208.955,472.581z M241.644,378.478l-26.627-11.029
			l3.242-45.625l15.395-1.094l12.46-5.161L241.644,378.478z M453.948,197.009L226.672,291.15l-82.118,5.836l-11.029-26.627
			l76.999-5.473l271.408-112.422C482.972,171.203,472.244,189.43,453.948,197.009z"/>
	</g>
</g>
<g>
</g>
<g>
</g>
<g>
</g>
<g>
</g>
<g>
</g>
<g>
</g>
<g>
</g>
<g>
</g>
<g>
</g>
<g>
</g>
<g>
</g>
<g>
</g>
<g>
</g>
<g>
</g>
<g>
</g>
</svg>
