<?xml version="1.0" encoding="iso-8859-1"?>
<!-- Generator: Adobe Illustrator 19.0.0, SVG Export Plug-In . SVG Version: 6.00 Build 0)  -->
<svg version="1.1" id="Capa_1" xmlns="http://www.w3.org/2000/svg" xmlns:xlink="http://www.w3.org/1999/xlink" x="0px" y="0px"
	 viewBox="0 0 512 512" style="enable-background:new 0 0 512 512;" xml:space="preserve">
<g>
	<g>
		<path d="M30.832,0v512h450.336V0H30.832z M361.072,30h30.048v30.048h-30.048V30z M301.024,30h30.048v30.048h-30.048V30z
			 M240.976,30h30.049v30.048h-30.049V30z M180.928,30h30.048v30.048h-30.048V30z M120.88,30h30.048v30.048H120.88V30z M60.832,30
			H90.88v30.048H60.832V30z M451.168,482H60.832V90.048h390.336V482z M451.168,60.048H421.12V30h30.048V60.048z"/>
	</g>
</g>
<g>
	<g>
		<path d="M271,291.794v-31.095h9.32c34.75,0,63.021-28.271,63.021-63.021v-39.32h-39.32c-19.223,0-36.453,8.661-48.021,22.275
			c-11.569-13.614-28.798-22.275-48.021-22.275h-39.32v39.32c0,34.75,28.271,63.021,63.021,63.021H241v31.095
			c-52.446,7.324-92.944,52.466-92.944,106.897v15h215.889v-15C363.944,344.26,323.446,299.118,271,291.794z M271,221.378
			c0-18.207,14.813-33.021,33.021-33.021h9.32v9.32c0,18.208-14.813,33.021-33.021,33.021H271V221.378z M231.68,230.699
			c-18.208,0-33.021-14.813-33.021-33.021v-9.32h9.32c18.208,0,33.021,14.813,33.021,33.021v9.32H231.68z M179.504,383.69
			c7.011-35.828,38.646-62.944,76.496-62.944c37.85,0,69.485,27.116,76.496,62.944H179.504z"/>
	</g>
</g>
<g>
</g>
<g>
</g>
<g>
</g>
<g>
</g>
<g>
</g>
<g>
</g>
<g>
</g>
<g>
</g>
<g>
</g>
<g>
</g>
<g>
</g>
<g>
</g>
<g>
</g>
<g>
</g>
<g>
</g>
</svg>
