<?xml version="1.0" encoding="iso-8859-1"?>
<!-- Generator: Adobe Illustrator 19.0.0, SVG Export Plug-In . SVG Version: 6.00 Build 0)  -->
<svg version="1.1" id="Capa_1" xmlns="http://www.w3.org/2000/svg" xmlns:xlink="http://www.w3.org/1999/xlink" x="0px" y="0px"
	 viewBox="0 0 512 512" style="enable-background:new 0 0 512 512;" xml:space="preserve">
<g>
	<g>
		<path d="M361.072,190V0h-30v89.944h-30.048V0h-30v89.944h-30.048V0h-30v89.944h-30.048V0h-30v190H241v32.143
			c-23.075,6.548-40.032,27.793-40.032,52.937v181.888C200.968,487.313,225.655,512,256,512c30.345,0,55.032-24.687,55.032-55.032
			V275.08c0-25.144-16.958-46.389-40.032-52.937V190H361.072z M281.032,275.08v181.888c0,13.803-11.23,25.032-25.032,25.032
			s-25.032-11.229-25.032-25.032V275.08c0-13.803,11.229-25.032,25.032-25.032S281.032,261.277,281.032,275.08z M180.928,160
			v-40.056h150.144V160H180.928z"/>
	</g>
</g>
<g>
</g>
<g>
</g>
<g>
</g>
<g>
</g>
<g>
</g>
<g>
</g>
<g>
</g>
<g>
</g>
<g>
</g>
<g>
</g>
<g>
</g>
<g>
</g>
<g>
</g>
<g>
</g>
<g>
</g>
</svg>
