<?xml version="1.0" encoding="iso-8859-1"?>
<!-- Generator: Adobe Illustrator 19.0.0, SVG Export Plug-In . SVG Version: 6.00 Build 0)  -->
<svg version="1.1" id="Capa_1" xmlns="http://www.w3.org/2000/svg" xmlns:xlink="http://www.w3.org/1999/xlink" x="0px" y="0px"
	 viewBox="0 0 512 512" style="enable-background:new 0 0 512 512;" xml:space="preserve">
<g>
	<g>
		<path d="M256,0.044L0,256.045l21.209,21.209l27.607-27.607v262.309h414.367V249.647l27.607,27.607L512,256.045L256,0.044z
			 M241.003,346.221h-19.792c-29.608,0-53.696-24.088-53.696-53.696v-19.792h19.792c29.608,0,53.696,24.088,53.696,53.696V346.221z
			 M433.189,481.96H270.997V376.216h19.792c46.147,0,83.691-37.544,83.691-83.691v-49.786h-49.786
			c-28.419,0-53.559,14.251-68.693,35.969c-15.134-21.718-40.274-35.969-68.693-35.969H137.52v49.786
			c0,46.147,37.544,83.691,83.691,83.691h19.792v105.745H78.811V219.652L256,42.464l177.189,177.189V481.96z M270.997,346.221
			V326.43c0-29.608,24.088-53.696,53.696-53.696h19.792v19.792c0,29.608-24.088,53.696-53.696,53.696H270.997z"/>
	</g>
</g>
<g>
</g>
<g>
</g>
<g>
</g>
<g>
</g>
<g>
</g>
<g>
</g>
<g>
</g>
<g>
</g>
<g>
</g>
<g>
</g>
<g>
</g>
<g>
</g>
<g>
</g>
<g>
</g>
<g>
</g>
</svg>
