<?xml version="1.0" encoding="iso-8859-1"?>
<!-- Generator: Adobe Illustrator 19.0.0, SVG Export Plug-In . SVG Version: 6.00 Build 0)  -->
<svg version="1.1" id="Capa_1" xmlns="http://www.w3.org/2000/svg" xmlns:xlink="http://www.w3.org/1999/xlink" x="0px" y="0px"
	 viewBox="0 0 512 512" style="enable-background:new 0 0 512 512;" xml:space="preserve">
<g>
	<g>
		<path d="M511.424,79.749c-2.942-33.021-16.076-56.085-16.634-57.05l-2.01-3.479l-3.479-2.009
			c-0.966-0.558-24.03-13.691-57.051-16.634c-30.649-2.733-76.125,2.955-118.729,45.562l-66.513,66.513l44.334,44.334
			L84.903,363.425l-21.231-21.231L0,405.867L106.132,512l63.673-63.673l-21.23-21.23l206.439-206.439l44.334,44.334l66.513-66.513
			C508.467,155.874,514.155,110.397,511.424,79.749z M106.132,469.574l-63.706-63.707l21.247-21.247l63.707,63.707L106.132,469.574z
			 M127.362,405.884l-21.247-21.247l206.439-206.439l21.247,21.247L127.362,405.884z M444.649,177.266l-45.3,45.299L289.433,112.651
			l45.3-45.3c27.314-27.314,58.849-39.75,93.699-36.992c19.854,1.577,35.446,7.848,42.208,11c3.093,6.634,9.184,21.76,10.902,41.052
			C484.689,117.725,472.276,149.639,444.649,177.266z"/>
	</g>
</g>
<g>
</g>
<g>
</g>
<g>
</g>
<g>
</g>
<g>
</g>
<g>
</g>
<g>
</g>
<g>
</g>
<g>
</g>
<g>
</g>
<g>
</g>
<g>
</g>
<g>
</g>
<g>
</g>
<g>
</g>
</svg>
