<?xml version="1.0" encoding="iso-8859-1"?>
<!-- Generator: Adobe Illustrator 19.0.0, SVG Export Plug-In . SVG Version: 6.00 Build 0)  -->
<svg version="1.1" id="Capa_1" xmlns="http://www.w3.org/2000/svg" xmlns:xlink="http://www.w3.org/1999/xlink" x="0px" y="0px"
	 viewBox="0 0 511.999 511.999" style="enable-background:new 0 0 511.999 511.999;" xml:space="preserve">
<g>
	<g>
		<path d="M271,194.258c34.161-6.593,60.048-36.703,60.048-72.76c0-75.928-64.622-115.288-67.373-116.926L256,0l-7.675,4.571
			c-2.751,1.639-67.373,40.997-67.373,116.926c0,36.057,25.887,66.167,60.048,72.76v31.404H78.474v90.049h32.144l30.024,196.289
			h230.713L401.38,315.71h32.144v-90.048H271V194.258z M271,49.544c14.288,15.282,30.048,39.495,30.048,71.952
			c0,19.407-12.602,35.916-30.048,41.803V49.544z M240.998,163.3c-17.445-5.887-30.047-22.396-30.047-41.803
			c0-24.316,8.672-46.896,25.775-67.113c1.427-1.687,2.855-3.266,4.272-4.781V163.3z M345.596,482H166.403l-25.435-166.289h230.063
			L345.596,482z M403.525,255.662v30.048H108.475v-30.048H403.525z"/>
	</g>
</g>
<g>
</g>
<g>
</g>
<g>
</g>
<g>
</g>
<g>
</g>
<g>
</g>
<g>
</g>
<g>
</g>
<g>
</g>
<g>
</g>
<g>
</g>
<g>
</g>
<g>
</g>
<g>
</g>
<g>
</g>
</svg>
