<?xml version="1.0" encoding="iso-8859-1"?>
<!-- Generator: Adobe Illustrator 19.0.0, SVG Export Plug-In . SVG Version: 6.00 Build 0)  -->
<svg version="1.1" id="Capa_1" xmlns="http://www.w3.org/2000/svg" xmlns:xlink="http://www.w3.org/1999/xlink" x="0px" y="0px"
	 viewBox="0 0 512.001 512.001" style="enable-background:new 0 0 512.001 512.001;" xml:space="preserve">
<g>
	<g>
		<path d="M505.806,17.049l-2.195-8.66l-8.66-2.195c-1.433-0.363-35.627-8.853-81.911-5.346
			c-61.686,4.677-115.805,28.663-156.507,69.366L137.448,189.299l82.02,82.02l-21.248,21.248l-47.394-47.394l-21.214,21.214
			l21.24,21.24L15.203,423.276c-20.271,20.27-20.271,53.252,0,73.522C25.34,506.934,38.649,512,51.964,512
			c13.312,0,26.627-5.068,36.761-15.203l135.65-135.649l21.24,21.24l21.214-21.214l-47.394-47.394l21.248-21.248l82.02,82.02
			l119.085-119.085c40.703-40.703,64.689-94.822,69.366-156.507C514.662,52.674,506.169,18.482,505.806,17.049z M67.511,475.583
			c-8.572,8.573-22.522,8.573-31.094,0c-8.572-8.572-8.572-22.522,0-31.094l9.41-9.41l31.094,31.094L67.511,475.583z M98.135,444.96
			L67.04,413.865L172.066,308.84l31.094,31.094L98.135,444.96z M481.159,97.69c-4.364,54.778-24.748,100.725-60.586,136.564
			l-97.871,97.87l-60.806-60.806l91.496-91.496l-21.214-21.214l-91.496,91.496l-60.806-60.806l97.87-97.871
			c35.839-35.838,81.785-56.222,136.564-60.586c28.358-2.26,51.949,0.585,64.198,2.649C480.575,45.75,483.417,69.338,481.159,97.69z
			"/>
	</g>
</g>
<g>
</g>
<g>
</g>
<g>
</g>
<g>
</g>
<g>
</g>
<g>
</g>
<g>
</g>
<g>
</g>
<g>
</g>
<g>
</g>
<g>
</g>
<g>
</g>
<g>
</g>
<g>
</g>
<g>
</g>
</svg>
