<?xml version="1.0" encoding="iso-8859-1"?>
<!-- Generator: Adobe Illustrator 19.0.0, SVG Export Plug-In . SVG Version: 6.00 Build 0)  -->
<svg version="1.1" id="Capa_1" xmlns="http://www.w3.org/2000/svg" xmlns:xlink="http://www.w3.org/1999/xlink" x="0px" y="0px"
	 viewBox="0 0 512 512" style="enable-background:new 0 0 512 512;" xml:space="preserve">
<g>
	<g>
		<path d="M394.076,209.239v-32.582c0-7.085-0.539-14.047-1.578-20.847l29.093-29.093c28.941-28.942,28.941-76.034-0.001-104.975
			C407.571,7.721,388.93,0,369.103,0c-19.826,0-38.467,7.721-52.487,21.741l-22.559,22.56c-11.939-3.391-24.533-5.208-37.544-5.208
			c-30.741,0-59.158,10.138-82.087,27.243c-2.095-11.054-6.424-22.459-14.902-30.936c-21.827-21.828-63.078-16.221-67.71-15.511
			l-10.879,1.67l-1.67,10.879c-0.711,4.632-6.317,45.882,15.511,67.71c10.362,10.362,25.1,14.54,38.221,15.996
			c-8.988,18.272-14.046,38.811-14.046,60.512v32.582h-50.8v91.57h32.813L131.746,512h248.506l30.785-211.191h32.813v-91.57H394.076
			z M337.828,42.955c17.246-17.244,45.304-17.245,62.55,0c17.244,17.245,17.244,45.304,0,62.549l-17.291,17.291
			c-11.934-27.938-32.857-51.148-59.113-65.985L337.828,42.955z M364.075,176.657v32.582h-31.281v-108.34
			C352.117,120.355,364.075,147.135,364.075,176.657z M271.512,70.144c11.05,1.549,21.567,4.777,31.282,9.427v129.667h-31.282
			V70.144z M210.23,79.572c9.715-4.65,20.232-7.879,31.282-9.427v139.094H210.23V79.572z M148.948,176.657
			c0-29.522,11.958-56.302,31.282-75.758v108.34h-31.282V176.657z M115.987,78.937c-6.127-6.128-7.862-19.377-7.848-30.166
			c1.904-0.012,3.944,0.031,6.068,0.157c11.255,0.668,19.815,3.398,24.103,7.686c6.125,6.125,7.861,19.367,7.846,30.166
			c-1.902,0.006-3.943-0.031-6.066-0.157C128.835,85.955,120.275,83.225,115.987,78.937z M354.309,482H157.689l-26.412-181.191
			H380.72L354.309,482z M413.85,270.809H98.147v-31.57H413.85V270.809z"/>
	</g>
</g>
<g>
</g>
<g>
</g>
<g>
</g>
<g>
</g>
<g>
</g>
<g>
</g>
<g>
</g>
<g>
</g>
<g>
</g>
<g>
</g>
<g>
</g>
<g>
</g>
<g>
</g>
<g>
</g>
<g>
</g>
</svg>
