<?xml version="1.0" encoding="iso-8859-1"?>
<!-- Generator: Adobe Illustrator 19.0.0, SVG Export Plug-In . SVG Version: 6.00 Build 0)  -->
<svg version="1.1" id="Capa_1" xmlns="http://www.w3.org/2000/svg" xmlns:xlink="http://www.w3.org/1999/xlink" x="0px" y="0px"
	 viewBox="0 0 512 512" style="enable-background:new 0 0 512 512;" xml:space="preserve">
<g>
	<g>
		<path d="M459.595,165.94h-70v-30.844C389.595,60.604,328.991,0,254.499,0S119.403,60.604,119.403,135.096v30.844H52.405v110.064
			h31.812L114.241,512H397.76l30.024-235.996h31.812L459.595,165.94L459.595,165.94z M329.547,61.604
			c18.575,18.964,30.048,44.911,30.048,73.492v30.844h-30.048V61.604z M269.499,31.075c10.606,1.522,20.705,4.631,30.048,9.082
			V165.94h-30.048V31.075z M209.451,40.157c9.343-4.451,19.442-7.56,30.048-9.082V165.94h-30.048V40.157z M149.403,135.096
			c0-28.58,11.473-54.527,30.048-73.492V165.94h-30.048V135.096z M371.334,482H140.666l-26.207-205.996h283.083L371.334,482z
			 M82.405,246.004V195.94h347.189v50.064H82.405z"/>
	</g>
</g>
<g>
</g>
<g>
</g>
<g>
</g>
<g>
</g>
<g>
</g>
<g>
</g>
<g>
</g>
<g>
</g>
<g>
</g>
<g>
</g>
<g>
</g>
<g>
</g>
<g>
</g>
<g>
</g>
<g>
</g>
</svg>
