<?xml version="1.0" encoding="iso-8859-1"?>
<!-- Generator: Adobe Illustrator 19.0.0, SVG Export Plug-In . SVG Version: 6.00 Build 0)  -->
<svg version="1.1" id="Capa_1" xmlns="http://www.w3.org/2000/svg" xmlns:xlink="http://www.w3.org/1999/xlink" x="0px" y="0px"
	 viewBox="0 0 512.001 512.001" style="enable-background:new 0 0 512.001 512.001;" xml:space="preserve">
<g>
	<g>
		<path d="M477.367,34.634c-46.178-46.179-121.316-46.178-167.492,0l-92.204,92.203l51.908,51.908L143.028,305.296l-52.492-10.029
			L0,385.803l126.198,126.198l90.536-90.536l-10.029-52.491l126.551-126.551l51.908,51.908l92.203-92.204
			C523.545,155.949,523.545,80.812,477.367,34.634z M126.199,469.572L42.43,385.803l21.248-21.248l83.769,83.769L126.199,469.572z
			 M168.662,427.108l-83.769-83.769l15.622-15.622l40.158,7.672l35.939,35.939l7.672,40.157L168.662,427.108z M190.48,342.77
			l-21.249-21.249l121.562-121.562l21.248,21.249L190.48,342.77z M312.008,178.745l40.379-40.379c5.858-5.856,15.39-5.857,21.249,0
			c5.858,5.858,5.858,15.391,0,21.249l-40.379,40.379L312.008,178.745z M456.153,180.913l-70.988,70.988l-30.693-30.693
			l40.379-40.379c17.556-17.556,17.556-46.122,0-63.677c-17.555-17.556-46.121-17.557-63.677,0l-40.379,40.379l-30.693-30.693
			L331.09,55.85c34.481-34.48,90.584-34.48,125.065,0C490.633,90.329,490.633,146.432,456.153,180.913z"/>
	</g>
</g>
<g>
</g>
<g>
</g>
<g>
</g>
<g>
</g>
<g>
</g>
<g>
</g>
<g>
</g>
<g>
</g>
<g>
</g>
<g>
</g>
<g>
</g>
<g>
</g>
<g>
</g>
<g>
</g>
<g>
</g>
</svg>
