<?xml version="1.0" encoding="iso-8859-1"?>
<!-- Generator: Adobe Illustrator 19.0.0, SVG Export Plug-In . SVG Version: 6.00 Build 0)  -->
<svg version="1.1" id="Capa_1" xmlns="http://www.w3.org/2000/svg" xmlns:xlink="http://www.w3.org/1999/xlink" x="0px" y="0px"
	 viewBox="0 0 512 512" style="enable-background:new 0 0 512 512;" xml:space="preserve">
<g>
	<g>
		<path d="M436.683,43.535l-75.317,49.987v62.538h-30.048V93.521L256,43.535l-75.317,49.987v62.538h-30.048V93.521L75.317,43.535
			L0,93.521v374.944h150.635v-69.49h30.048v69.49h150.635v-69.49h30.048v69.49H512V93.521L436.683,43.535z M30,438.465V109.617
			L75.317,79.54l45.317,30.077v328.848H30z M180.683,368.976h-30.048v-30.048h30.048V368.976z M180.683,308.927h-30.048v-62.82
			h30.048V308.927z M180.683,216.108h-30.048V186.06h30.048V216.108z M301.317,438.465h-90.635V109.617L256,79.541l45.317,30.077
			V438.465z M361.365,368.976h-30.048v-30.048h30.048V368.976z M361.365,308.927h-30.048v-62.82h30.048V308.927z M361.365,216.108
			h-30.048V186.06h30.048V216.108z M482,438.465h-90.635V109.617l45.317-30.077L482,109.617V438.465z"/>
	</g>
</g>
<g>
</g>
<g>
</g>
<g>
</g>
<g>
</g>
<g>
</g>
<g>
</g>
<g>
</g>
<g>
</g>
<g>
</g>
<g>
</g>
<g>
</g>
<g>
</g>
<g>
</g>
<g>
</g>
<g>
</g>
</svg>
