<?xml version="1.0" encoding="iso-8859-1"?>
<!-- Generator: Adobe Illustrator 19.0.0, SVG Export Plug-In . SVG Version: 6.00 Build 0)  -->
<svg version="1.1" id="Capa_1" xmlns="http://www.w3.org/2000/svg" xmlns:xlink="http://www.w3.org/1999/xlink" x="0px" y="0px"
	 viewBox="0 0 512 512" style="enable-background:new 0 0 512 512;" xml:space="preserve">
<g>
	<g>
		<path d="M391.102,100.056V0H150.934v35.028h-30.036v30h30.036v35.028h29.543c-3.316,52.428-23.098,79.605-23.315,79.897
			l0.06-0.079l23.811,18.25c1.136-1.481,25.986-34.668,29.501-98.069h60.498v30.048h-30.024v65.364L120.91,285.54V512h270.192
			V130.104h-30.024v-30.048H391.102z M361.102,160.104V482h0H150.91V300.54l120.096-90.072v-50.364H361.102z M301.03,130.104
			v-30.048h30.048v30.048H301.03z M180.934,70.056V30h180.168v40.056H180.934z"/>
	</g>
</g>
<g>
	<g>
		<path d="M266.953,251.008L180.91,315.54V452h150.192V251.008H266.953z M301.102,422H210.91v-91.46l66.042-49.532h24.15V422z"/>
	</g>
</g>
<g>
</g>
<g>
</g>
<g>
</g>
<g>
</g>
<g>
</g>
<g>
</g>
<g>
</g>
<g>
</g>
<g>
</g>
<g>
</g>
<g>
</g>
<g>
</g>
<g>
</g>
<g>
</g>
<g>
</g>
</svg>
