<?xml version="1.0" encoding="iso-8859-1"?>
<!-- Generator: Adobe Illustrator 19.0.0, SVG Export Plug-In . SVG Version: 6.00 Build 0)  -->
<svg version="1.1" id="Capa_1" xmlns="http://www.w3.org/2000/svg" xmlns:xlink="http://www.w3.org/1999/xlink" x="0px" y="0px"
	 viewBox="0 0 512.003 512.003" style="enable-background:new 0 0 512.003 512.003;" xml:space="preserve">
<g>
	<g>
		<path d="M256.537,110.954c-87.44,0-158.578,84.003-158.578,187.262s71.138,187.262,158.578,187.262
			s158.583-84.003,158.578-187.262C415.115,194.957,343.977,110.954,256.537,110.954z M256.537,453.006
			c-69.536,0-126.104-69.439-126.104-154.789s56.568-154.789,126.104-154.789s126.11,69.444,126.104,154.789
			C382.642,383.567,326.073,453.006,256.537,453.006z"/>
	</g>
</g>
<g>
	<g>
		<rect x="127.732" y="208.374" width="258.162" height="32.473"/>
	</g>
</g>
<g>
	<g>
		<rect x="240.301" y="224.07" width="32.473" height="245.173"/>
	</g>
</g>
<g>
	<g>
		<path d="M336.643,26.524c-23.576,0-42.756,19.181-42.756,42.756s19.181,42.756,42.756,42.756c23.57,0,42.751-19.181,42.751-42.756
			S360.214,26.524,336.643,26.524z M336.643,79.564c-5.667,0-10.283-4.611-10.283-10.283c0-5.672,4.611-10.283,10.283-10.283
			c5.667,0,10.278,4.611,10.278,10.283C346.921,74.952,342.31,79.564,336.643,79.564z"/>
	</g>
</g>
<g>
	<g>
		
			<rect x="297.898" y="103.409" transform="matrix(0.2577 -0.9662 0.9662 0.2577 124.2373 401.0018)" width="50.413" height="32.467"/>
	</g>
</g>
<g>
	<g>
		<path d="M176.442,26.524c-23.576,0-42.756,19.181-42.756,42.756s19.181,42.756,42.756,42.756s42.756-19.181,42.756-42.756
			S200.018,26.524,176.442,26.524z M176.442,79.564c-5.672,0-10.283-4.611-10.283-10.283c0-5.672,4.611-10.283,10.283-10.283
			c5.667,0,10.283,4.611,10.283,10.283C186.725,74.952,182.114,79.564,176.442,79.564z"/>
	</g>
</g>
<g>
	<g>
		<rect x="173.73" y="94.398" transform="matrix(0.9662 -0.2577 0.2577 0.9662 -24.4057 52.9951)" width="32.472" height="50.408"/>
	</g>
</g>
<g>
	<g>
		<path d="M502.982,337.331l-40.592-31.391c-2.841-2.197-6.338-3.393-9.931-3.393h-52.493c-8.968,0-16.237,7.269-16.237,16.237
			c0,8.968,7.269,16.237,16.237,16.237h46.951l36.202,27.997c2.955,2.289,6.446,3.393,9.921,3.393c4.855,0,9.655-2.165,12.854-6.305
			C511.382,353.01,510.077,342.819,502.982,337.331z"/>
	</g>
</g>
<g>
	<g>
		<path d="M480.559,432.055l-31.927-47.627c-2.251-3.35-5.667-5.748-9.585-6.716l-52.498-12.984
			c-8.719-2.132-17.514,3.161-19.663,11.858c-2.159,8.708,3.155,17.514,11.858,19.663l46.41,11.479l28.43,42.415
			c3.134,4.671,8.27,7.193,13.503,7.193c3.107,0,6.251-0.888,9.028-2.749C483.563,449.591,485.549,439.508,480.559,432.055z"/>
	</g>
</g>
<g>
	<g>
		<path d="M112.031,302.547H59.533c-3.594,0-7.085,1.196-9.931,3.393L9.01,337.331c-7.095,5.488-8.4,15.679-2.912,22.775
			c3.199,4.14,7.999,6.305,12.854,6.305c3.475,0,6.971-1.104,9.921-3.393l36.202-27.997h46.956c8.968,0,16.237-7.269,16.237-16.237
			C128.268,309.815,120.999,302.547,112.031,302.547z"/>
	</g>
</g>
<g>
	<g>
		<path d="M503.805,251.087l-46.545-26.514c-4.086-2.327-8.979-2.771-13.411-1.218l-52.498,18.401
			c-8.465,2.966-12.919,12.232-9.953,20.696c2.96,8.465,12.226,12.897,20.691,9.953l45.517-15.955l40.115,22.856
			c2.533,1.451,5.299,2.138,8.021,2.138c5.645,0,11.133-2.95,14.131-8.21C514.31,265.44,511.593,255.525,503.805,251.087z"/>
	</g>
</g>
<g>
	<g>
		<path d="M120.653,241.762l-52.498-18.401c-4.427-1.553-9.325-1.104-13.406,1.218L8.204,251.093
			c-7.794,4.438-10.51,14.353-6.073,22.147c2.988,5.255,8.476,8.205,14.12,8.205c2.722,0,5.488-0.687,8.026-2.132l40.121-22.856
			l45.517,15.955c8.47,2.95,17.725-1.488,20.691-9.953C133.572,253.994,129.118,244.728,120.653,241.762z"/>
	</g>
</g>
<g>
	<g>
		<path d="M145.105,376.586c-2.154-8.703-10.971-14.001-19.657-11.858L72.95,377.711c-3.918,0.963-7.334,3.366-9.585,6.716
			l-31.932,47.627c-4.995,7.447-3.004,17.536,4.443,22.531c2.776,1.862,5.921,2.749,9.028,2.749c5.234,0,10.37-2.522,13.493-7.193
			l28.441-42.415l46.404-11.479C141.95,394.094,147.259,385.288,145.105,376.586z"/>
	</g>
</g>
<g>
</g>
<g>
</g>
<g>
</g>
<g>
</g>
<g>
</g>
<g>
</g>
<g>
</g>
<g>
</g>
<g>
</g>
<g>
</g>
<g>
</g>
<g>
</g>
<g>
</g>
<g>
</g>
<g>
</g>
</svg>
