<?xml version="1.0" encoding="iso-8859-1"?>
<!-- Generator: Adobe Illustrator 19.0.0, SVG Export Plug-In . SVG Version: 6.00 Build 0)  -->
<svg version="1.1" id="Capa_1" xmlns="http://www.w3.org/2000/svg" xmlns:xlink="http://www.w3.org/1999/xlink" x="0px" y="0px"
	 viewBox="0 0 512.002 512.002" style="enable-background:new 0 0 512.002 512.002;" xml:space="preserve">
<g>
	<g>
		<path d="M505.808,17.049l-2.195-8.659l-8.659-2.195c-1.433-0.365-35.623-8.854-81.906-5.347
			c-61.683,4.677-115.8,28.661-156.5,69.362L38.563,288.193l55.863,55.863l-79.199,79.198C5.407,433.075,0,446.13,0,460.016
			s5.407,26.94,15.226,36.759c9.819,9.819,22.874,15.227,36.76,15.227c13.887,0,26.941-5.407,36.76-15.227l79.199-79.199
			l55.863,55.863l217.984-217.984c40.701-40.7,64.686-94.817,69.362-156.5C514.662,52.672,506.171,18.481,505.808,17.049z
			 M67.532,475.562C63.38,479.714,57.858,482,51.985,482c-5.872,0-11.394-2.287-15.546-6.44C32.287,471.409,30,465.888,30,460.016
			c0-5.873,2.287-11.395,6.439-15.547l79.199-79.199l31.093,31.093L67.532,475.562z M167.944,375.149l-31.092-31.093
			l132.912-132.912c4.153-4.152,9.674-6.439,15.547-6.439c5.872,0,11.394,2.287,15.546,6.44c4.152,4.151,6.439,9.673,6.439,15.545
			c0,5.873-2.287,11.394-6.439,15.547L167.944,375.149z M481.162,97.685c-4.363,54.776-24.747,100.72-60.583,136.557
			L223.808,431.013l-34.65-34.65L322.07,263.451c9.819-9.819,15.227-22.874,15.227-36.76s-5.407-26.94-15.227-36.759
			c-9.818-9.819-22.873-15.227-36.759-15.227c-13.886,0-26.94,5.407-36.76,15.227L115.638,322.844l-34.65-34.65L277.76,91.422
			c35.837-35.836,81.78-56.22,136.557-60.583c28.353-2.256,51.946,0.586,64.195,2.65C480.578,45.748,483.421,69.335,481.162,97.685z
			"/>
	</g>
</g>
<g>
</g>
<g>
</g>
<g>
</g>
<g>
</g>
<g>
</g>
<g>
</g>
<g>
</g>
<g>
</g>
<g>
</g>
<g>
</g>
<g>
</g>
<g>
</g>
<g>
</g>
<g>
</g>
<g>
</g>
</svg>
