<?xml version="1.0" encoding="iso-8859-1"?>
<!-- Generator: Adobe Illustrator 19.0.0, SVG Export Plug-In . SVG Version: 6.00 Build 0)  -->
<svg version="1.1" id="Capa_1" xmlns="http://www.w3.org/2000/svg" xmlns:xlink="http://www.w3.org/1999/xlink" x="0px" y="0px"
	 viewBox="0 0 512 512" style="enable-background:new 0 0 512 512;" xml:space="preserve">
<g>
	<g>
		<path d="M481.976,196.055V94.217h-15c-41.381,0-75.048,33.666-75.048,75.048v26.79h-42.435l-40.032,64.805h-90.28v-98.883
			l30.962-30.962l36.615,36.615l21.213-21.213l-94.443-94.443l-21.213,21.213l36.615,36.615l-30.962,30.962H65.777L0,272.319
			v133.148h61.695c6.88,31.166,34.707,54.559,67.912,54.559s61.032-23.393,67.912-54.559h116.964
			c6.88,31.166,34.707,54.559,67.912,54.559s61.032-23.393,67.912-54.559H512V196.055H481.976z M421.928,169.265
			c0-19.583,12.56-36.287,30.048-42.48v69.271h-30.048V169.265z M129.606,430.026c-21.813,0-39.559-17.746-39.559-39.559
			s17.746-39.559,39.559-39.559s39.559,17.746,39.559,39.559S151.419,430.026,129.606,430.026z M382.394,430.026
			c-21.813,0-39.559-17.746-39.559-39.559s17.746-39.559,39.559-39.559s39.559,17.746,39.559,39.559
			S404.206,430.026,382.394,430.026z M482,375.467h-31.695c-6.88-31.166-34.707-54.559-67.912-54.559
			c-33.205,0-61.032,23.393-67.912,54.559H197.518c-6.88-31.166-34.707-54.559-67.912-54.559s-61.032,23.393-67.912,54.559H30
			v-96.066l54.318-108.637h104.863V290.86h137.011l40.032-64.805h115.752H482V375.467z"/>
	</g>
</g>
<g>
	<g>
		<rect x="99.1" y="260.86" width="60.05" height="30"/>
	</g>
</g>
<g>
	<g>
		<rect x="99.1" y="200.81" width="60.05" height="30"/>
	</g>
</g>
<g>
</g>
<g>
</g>
<g>
</g>
<g>
</g>
<g>
</g>
<g>
</g>
<g>
</g>
<g>
</g>
<g>
</g>
<g>
</g>
<g>
</g>
<g>
</g>
<g>
</g>
<g>
</g>
<g>
</g>
</svg>
