<?xml version="1.0" encoding="iso-8859-1"?>
<!-- Generator: Adobe Illustrator 19.0.0, SVG Export Plug-In . SVG Version: 6.00 Build 0)  -->
<svg version="1.1" id="Capa_1" xmlns="http://www.w3.org/2000/svg" xmlns:xlink="http://www.w3.org/1999/xlink" x="0px" y="0px"
	 viewBox="0 0 512 512" style="enable-background:new 0 0 512 512;" xml:space="preserve">
<g>
	<g>
		<path d="M436.951,271.024c-22.944,0-41.61-18.666-41.61-41.61V0h-90.048v137.754h-98.587V0h-90.048v229.414
			c0,22.944-18.667,41.61-41.61,41.61h-15V512h391.904V271.024H436.951z M335.293,30h30.048v107.754h-30.048V30z M146.658,30h30.048
			v107.754h-30.048V30z M90.047,482V299.444c32.31-6.913,56.61-35.688,56.61-70.03v-61.66h218.684v61.66
			c0,34.343,24.301,63.117,56.61,70.03V482H90.047z"/>
	</g>
</g>
<g>
	<g>
		<path d="M161.693,282.944v169.008h188.611V282.944H161.693z M320.304,421.952H191.693v-48.96h128.611V421.952z M320.305,342.992
			H191.693v-30.048h128.612V342.992z"/>
	</g>
</g>
<g>
</g>
<g>
</g>
<g>
</g>
<g>
</g>
<g>
</g>
<g>
</g>
<g>
</g>
<g>
</g>
<g>
</g>
<g>
</g>
<g>
</g>
<g>
</g>
<g>
</g>
<g>
</g>
<g>
</g>
</svg>
