<?xml version="1.0" encoding="iso-8859-1"?>
<!-- Generator: Adobe Illustrator 19.0.0, SVG Export Plug-In . SVG Version: 6.00 Build 0)  -->
<svg version="1.1" id="Capa_1" xmlns="http://www.w3.org/2000/svg" xmlns:xlink="http://www.w3.org/1999/xlink" x="0px" y="0px"
	 viewBox="0 0 512 512" style="enable-background:new 0 0 512 512;" xml:space="preserve">
<g>
	<g>
		<path d="M451.144,153.365V0h-30v63.317h-30.048V0h-30v63.317h-30.048V0h-30v63.317H271V0h-30v63.317h-30.048V0h-30v63.317h-30.048
			V0h-30v63.317H90.856V0h-30v153.365H241v30.048h-45.036v268.551C195.964,485.068,222.896,512,256,512s60.036-26.932,60.036-60.036
			V183.413H271v-30.048H451.144z M286.036,213.413v238.551C286.036,468.525,272.562,482,256,482s-30.036-13.475-30.036-30.036
			V213.413H286.036z M90.856,123.365V93.317h330.288v30.048H90.856z"/>
	</g>
</g>
<g>
</g>
<g>
</g>
<g>
</g>
<g>
</g>
<g>
</g>
<g>
</g>
<g>
</g>
<g>
</g>
<g>
</g>
<g>
</g>
<g>
</g>
<g>
</g>
<g>
</g>
<g>
</g>
<g>
</g>
</svg>
