<?xml version="1.0" encoding="iso-8859-1"?>
<!-- Generator: Adobe Illustrator 19.0.0, SVG Export Plug-In . SVG Version: 6.00 Build 0)  -->
<svg version="1.1" id="Capa_1" xmlns="http://www.w3.org/2000/svg" xmlns:xlink="http://www.w3.org/1999/xlink" x="0px" y="0px"
	 viewBox="0 0 512 512" style="enable-background:new 0 0 512 512;" xml:space="preserve">
<g>
	<g>
		<path d="M256,0c-77.704,0-140.92,63.217-140.92,140.92v311.02H241V512h30v-60.06h125.92V140.92h0C396.92,63.217,333.704,0,256,0z
			 M271,421.94v-50.428l68.122-49.763l-17.696-24.225L271,334.36v-52.92l68.122-49.763l-17.696-24.225L271,244.288v-52.919
			l68.122-49.764l-17.696-24.225L271,154.216V90.06h-30v64.156l-50.425-36.836l-17.696,24.225L241,191.368v52.919l-50.425-36.835
			l-17.696,24.225L241,281.44v52.92l-50.425-36.835l-17.696,24.225L241,371.512v50.428h-95.92V140.92
			C145.08,79.759,194.838,30,256,30s110.92,49.759,110.92,110.92v281.02H271z"/>
	</g>
</g>
<g>
</g>
<g>
</g>
<g>
</g>
<g>
</g>
<g>
</g>
<g>
</g>
<g>
</g>
<g>
</g>
<g>
</g>
<g>
</g>
<g>
</g>
<g>
</g>
<g>
</g>
<g>
</g>
<g>
</g>
</svg>
