<?xml version="1.0" encoding="iso-8859-1"?>
<!-- Generator: Adobe Illustrator 19.0.0, SVG Export Plug-In . SVG Version: 6.00 Build 0)  -->
<svg version="1.1" id="Capa_1" xmlns="http://www.w3.org/2000/svg" xmlns:xlink="http://www.w3.org/1999/xlink" x="0px" y="0px"
	 viewBox="0 0 512.001 512.001" style="enable-background:new 0 0 512.001 512.001;" xml:space="preserve">
<g>
	<g>
		<path d="M321.901,130.024c-17.524,0-34.76,3.66-50.899,10.7v-36.88h9.824c35.301,0,64.019-28.719,64.019-64.019V0h-39.825
			c-19.657,0-37.266,8.912-49.019,22.901C244.247,8.912,226.64,0,206.982,0h-39.825v39.825c0,35.301,28.719,64.019,64.019,64.019
			h9.824v36.88c-16.139-7.04-33.376-10.7-50.899-10.7c-76.242,0-138.269,67.94-138.269,151.448
			c0,44.038,14.603,100.178,37.202,143.023c13.576,25.739,29.527,46.263,47.409,61.002c21.337,17.586,44.868,26.504,69.94,26.504
			c19.497,0,33.054-3.494,49.617-13.375c16.563,9.881,30.12,13.375,49.617,13.375c25.072,0,48.604-8.917,69.94-26.504
			c17.882-14.739,33.833-35.264,47.409-61.002c22.6-42.845,37.202-98.984,37.202-143.023
			C460.169,197.963,398.143,130.024,321.901,130.024z M241,73.844h-9.824c-18.758,0-34.019-15.26-34.019-34.019v-9.824h9.824
			C225.74,30.001,241,45.261,241,64.02V73.844z M271.001,64.02c0-18.758,15.26-34.019,34.019-34.019h9.824v9.824
			c0,18.758-15.26,34.019-34.019,34.019h-9.824V64.02z M305.618,481.999c-15.602,0-24.173-2.053-41.205-13.59L256,462.711
			l-8.412,5.698c-17.032,11.537-25.604,13.59-41.205,13.59c-24.224,0-59.642-12.404-90.814-71.502
			c-20.494-38.854-33.737-89.5-33.737-129.026c0-66.967,48.568-121.447,108.269-121.447c20.212,0,40.018,6.412,57.272,18.542
			l8.627,6.064l8.627-6.064c17.255-12.13,37.061-18.542,57.272-18.542c59.699,0,108.269,54.48,108.269,121.447
			C430.169,349.53,386.207,481.999,305.618,481.999z"/>
	</g>
</g>
<g>
</g>
<g>
</g>
<g>
</g>
<g>
</g>
<g>
</g>
<g>
</g>
<g>
</g>
<g>
</g>
<g>
</g>
<g>
</g>
<g>
</g>
<g>
</g>
<g>
</g>
<g>
</g>
<g>
</g>
</svg>
