<?xml version="1.0" encoding="iso-8859-1"?>
<!-- Generator: Adobe Illustrator 19.0.0, SVG Export Plug-In . SVG Version: 6.00 Build 0)  -->
<svg version="1.1" id="Capa_1" xmlns="http://www.w3.org/2000/svg" xmlns:xlink="http://www.w3.org/1999/xlink" x="0px" y="0px"
	 viewBox="0 0 511.999 511.999" style="enable-background:new 0 0 511.999 511.999;" xml:space="preserve">
<g>
	<g>
		<path d="M453.007,251.595l52.362-73.19L255.999,0L6.63,178.405l52.362,73.19l28.789-20.596l25.698,251.002H69.745v29.998h372.508
			v-29.998h-43.732l25.698-251.002L453.007,251.595z M368.367,482.002H143.632l-27.756-271.104l140.123-100.248l140.124,100.248
			L368.367,482.002z M255.999,73.767L65.934,209.745l-17.454-24.397L255.999,36.884l207.519,148.465l-17.454,24.396L255.999,73.767z
			"/>
	</g>
</g>
<g>
	<g>
		<path d="M255.999,294.619c-43.378,0-78.669,35.291-78.669,78.669c0,43.378,35.29,78.67,78.669,78.67
			c43.378,0,78.669-35.291,78.669-78.67C334.668,329.909,299.378,294.619,255.999,294.619z M255.999,421.959
			c-26.838,0-48.671-21.834-48.671-48.672c0-26.838,21.833-48.671,48.671-48.671c26.838,0,48.671,21.834,48.671,48.671
			C304.671,400.125,282.837,421.959,255.999,421.959z"/>
	</g>
</g>
<g>
	<g>
		<path d="M255.999,162.624c-28.108,0-50.975,22.867-50.975,50.975c0,28.108,22.867,50.975,50.975,50.975
			s50.975-22.866,50.975-50.975S284.107,162.624,255.999,162.624z M255.999,234.576c-11.567,0-20.977-9.41-20.977-20.977
			c0-11.567,9.41-20.977,20.977-20.977c11.567,0,20.977,9.41,20.977,20.977C276.977,225.166,267.566,234.576,255.999,234.576z"/>
	</g>
</g>
<g>
</g>
<g>
</g>
<g>
</g>
<g>
</g>
<g>
</g>
<g>
</g>
<g>
</g>
<g>
</g>
<g>
</g>
<g>
</g>
<g>
</g>
<g>
</g>
<g>
</g>
<g>
</g>
<g>
</g>
</svg>
