<?xml version="1.0" encoding="iso-8859-1"?>
<!-- Generator: Adobe Illustrator 19.0.0, SVG Export Plug-In . SVG Version: 6.00 Build 0)  -->
<svg version="1.1" id="Capa_1" xmlns="http://www.w3.org/2000/svg" xmlns:xlink="http://www.w3.org/1999/xlink" x="0px" y="0px"
	 viewBox="0 0 512 512" style="enable-background:new 0 0 512 512;" xml:space="preserve">
<g>
	<g>
		<path d="M478.788,423.535c2.049-5.143,3.188-10.743,3.188-16.607c0-20.739-14.098-38.237-33.211-43.44
			c2.049-5.143,3.188-10.743,3.188-16.607c0-24.826-20.198-45.023-45.024-45.023h-5.016v-95.38h30.036v-30h-22.031L389.901,37.333
			h-66.026L303.86,176.477h-22.032v30h30.036v95.38H200.112v-95.38h30.036v-30h-30.036v-26.956
			c0-44.224-32.254-81.051-74.473-88.208V30h53.353V0H42.287v30H95.64v30.048H0v90h110.112v26.429H80.076v30h30.036v95.38h-5.04
			c-24.826,0-45.024,20.197-45.024,45.023c0,5.864,1.139,11.465,3.188,16.607c-19.113,5.203-33.211,22.702-33.211,43.44
			c0,5.865,1.139,11.465,3.188,16.607C14.099,428.738,0,446.237,0,466.976C0,491.802,20.198,512,45.024,512h421.951
			C491.802,512,512,491.802,512,466.976C512,446.237,497.901,428.738,478.788,423.535z M349.869,67.333h14.038l15.7,109.144h-45.438
			L349.869,67.333z M371.912,206.477v95.38h-30.048v-95.38H371.912z M30,120.048v-30h80.64c32.793,0,59.473,26.68,59.473,59.473
			v26.956h-30v-26.956c-0.001-16.251-13.222-29.473-29.473-29.473H30z M170.112,206.477v95.38h-30v-95.38H170.112z M105.072,331.856
			h301.855c8.284,0,15.024,6.739,15.024,15.023s-6.74,15.024-15.024,15.024H105.072c-8.284,0-15.024-6.74-15.024-15.024
			S96.788,331.856,105.072,331.856z M75.048,391.904h30.024h301.855h30.024c8.284,0,15.023,6.739,15.023,15.023
			s-6.739,15.024-15.023,15.024H75.048c-8.284,0-15.023-6.74-15.023-15.024S66.764,391.904,75.048,391.904z M466.976,482H45.024
			C36.74,482,30,475.26,30,466.976s6.74-15.023,15.024-15.023h30.023h361.904h30.023c8.284,0,15.024,6.739,15.024,15.023
			S475.26,482,466.976,482z"/>
	</g>
</g>
<g>
</g>
<g>
</g>
<g>
</g>
<g>
</g>
<g>
</g>
<g>
</g>
<g>
</g>
<g>
</g>
<g>
</g>
<g>
</g>
<g>
</g>
<g>
</g>
<g>
</g>
<g>
</g>
<g>
</g>
</svg>
