<?xml version="1.0" encoding="iso-8859-1"?>
<!-- Generator: Adobe Illustrator 19.0.0, SVG Export Plug-In . SVG Version: 6.00 Build 0)  -->
<svg version="1.1" id="Capa_1" xmlns="http://www.w3.org/2000/svg" xmlns:xlink="http://www.w3.org/1999/xlink" x="0px" y="0px"
	 viewBox="0 0 512 512" style="enable-background:new 0 0 512 512;" xml:space="preserve">
<g>
	<g>
		<path d="M398.807,146.033l-63.664,63.665l21.227,21.227l-59.786,59.786V161.08H89.987v-40.507c0-3.624,2.949-6.572,6.572-6.572
			h162.085V24.014H96.559C43.316,24.015,0,67.332,0,120.574v367.412h296.584V432.19l130.526-130.526l21.227,21.228L512,259.228
			L398.807,146.033z M266.588,457.99H29.996V120.574c0-36.703,29.86-66.563,66.563-66.563h132.09v29.996H96.559
			c-20.164,0-36.568,16.405-36.568,36.568v70.503h206.597V457.99z M296.584,389.771v-56.64l80.996-80.996l28.32,28.32
			L296.584,389.771z M377.563,209.698l21.244-21.244l70.774,70.774l-21.244,21.244L377.563,209.698z"/>
	</g>
</g>
<g>
</g>
<g>
</g>
<g>
</g>
<g>
</g>
<g>
</g>
<g>
</g>
<g>
</g>
<g>
</g>
<g>
</g>
<g>
</g>
<g>
</g>
<g>
</g>
<g>
</g>
<g>
</g>
<g>
</g>
</svg>
