<?xml version="1.0" encoding="iso-8859-1"?>
<!-- Generator: Adobe Illustrator 19.0.0, SVG Export Plug-In . SVG Version: 6.00 Build 0)  -->
<svg version="1.1" id="Capa_1" xmlns="http://www.w3.org/2000/svg" xmlns:xlink="http://www.w3.org/1999/xlink" x="0px" y="0px"
	 viewBox="0 0 512 512" style="enable-background:new 0 0 512 512;" xml:space="preserve">
<g>
	<g>
		<path d="M440,81.559V213.86l-30.048,10.347V101.581l-386.28,47.964L168.846,307.23l-29.186,10.05
			c-13.078-22.086-37.138-36.935-64.612-36.935C33.666,280.345,0,314.012,0,355.393c0,41.381,33.666,75.048,75.048,75.048
			c41.382,0,75.048-33.667,75.048-75.048c0-3.307-0.238-6.558-0.655-9.753l154.849-53.322l37.497,87.239h68.165V255.935L470,235.258
			V111.559h42v-30H440z M75.048,400.441c-24.84,0-45.048-20.208-45.048-45.047c0-24.84,20.208-45.048,45.048-45.048
			c14.263,0,26.989,6.67,35.249,17.046l-40.133,13.819l9.768,28.365l40.155-13.827C119.894,380.425,99.769,400.441,75.048,400.441z
			 M199.807,296.568L85.243,172.13l294.709-36.594v99L199.807,296.568z M379.953,349.559L379.953,349.559h-18.406l-28.812-67.034
			l47.218-16.259V349.559z"/>
	</g>
</g>
<g>
</g>
<g>
</g>
<g>
</g>
<g>
</g>
<g>
</g>
<g>
</g>
<g>
</g>
<g>
</g>
<g>
</g>
<g>
</g>
<g>
</g>
<g>
</g>
<g>
</g>
<g>
</g>
<g>
</g>
</svg>
