<?xml version="1.0" encoding="iso-8859-1"?>
<!-- Generator: Adobe Illustrator 19.0.0, SVG Export Plug-In . SVG Version: 6.00 Build 0)  -->
<svg version="1.1" id="Capa_1" xmlns="http://www.w3.org/2000/svg" xmlns:xlink="http://www.w3.org/1999/xlink" x="0px" y="0px"
	 viewBox="0 0 512 512" style="enable-background:new 0 0 512 512;" xml:space="preserve">
<g>
	<g>
		<path d="M256.001,0L44.415,211.586l21.211,21.211l28.387-28.387V512h323.975V204.409l28.387,28.387l21.21-21.211L256.001,0z
			 M387.991,482.003H124.01V302.361h263.981V482.003z M387.991,272.364H124.01v-97.952l131.991-131.99l131.991,131.99V272.364z"/>
	</g>
</g>
<g>
	<g>
		<path d="M256.001,332.406c-32.961,0-59.776,26.815-59.776,59.776c0,32.961,26.815,59.776,59.776,59.776
			s59.776-26.815,59.776-59.776C315.776,359.221,288.961,332.406,256.001,332.406z M256.001,421.961
			c-16.42,0-29.779-13.359-29.779-29.779s13.359-29.779,29.779-29.779s29.779,13.359,29.779,29.779S272.421,421.961,256.001,421.961
			z"/>
	</g>
</g>
<g>
	<g>
		<path d="M256.001,122.768c-32.961,0-59.776,26.815-59.776,59.776s26.815,59.776,59.776,59.776s59.776-26.815,59.776-59.776
			S288.961,122.768,256.001,122.768z M256.001,212.322c-16.42,0-29.779-13.359-29.779-29.779s13.359-29.779,29.779-29.779
			s29.779,13.359,29.779,29.779S272.421,212.322,256.001,212.322z"/>
	</g>
</g>
<g>
</g>
<g>
</g>
<g>
</g>
<g>
</g>
<g>
</g>
<g>
</g>
<g>
</g>
<g>
</g>
<g>
</g>
<g>
</g>
<g>
</g>
<g>
</g>
<g>
</g>
<g>
</g>
<g>
</g>
</svg>
