<?xml version="1.0" encoding="iso-8859-1"?>
<!-- Generator: Adobe Illustrator 19.0.0, SVG Export Plug-In . SVG Version: 6.00 Build 0)  -->
<svg version="1.1" id="Capa_1" xmlns="http://www.w3.org/2000/svg" xmlns:xlink="http://www.w3.org/1999/xlink" x="0px" y="0px"
	 viewBox="0 0 511.999 511.999" style="enable-background:new 0 0 511.999 511.999;" xml:space="preserve">
<g>
	<g>
		<path d="M457.867,119.345L338.522,0l-87.197,87.197l62.596,62.596L22.458,441.255l70.744,70.744l291.464-291.465l62.596,62.596
			l10.605-10.606C500.099,230.294,500.099,161.577,457.867,119.345z M93.203,469.577l-28.322-28.322l165.38-165.38l28.322,28.322
			L93.203,469.577z M279.794,282.985l-28.322-28.322l83.66-83.661l28.322,28.322L279.794,282.985z M446.243,239.69L293.749,87.197
			l44.773-44.773l98.134,98.134C463.565,167.466,466.76,209.248,446.243,239.69z"/>
	</g>
</g>
<g>
</g>
<g>
</g>
<g>
</g>
<g>
</g>
<g>
</g>
<g>
</g>
<g>
</g>
<g>
</g>
<g>
</g>
<g>
</g>
<g>
</g>
<g>
</g>
<g>
</g>
<g>
</g>
<g>
</g>
</svg>
