<?xml version="1.0" encoding="iso-8859-1"?>
<!-- Generator: Adobe Illustrator 19.0.0, SVG Export Plug-In . SVG Version: 6.00 Build 0)  -->
<svg version="1.1" id="Capa_1" xmlns="http://www.w3.org/2000/svg" xmlns:xlink="http://www.w3.org/1999/xlink" x="0px" y="0px"
	 viewBox="0 0 512 512" style="enable-background:new 0 0 512 512;" xml:space="preserve">
<g>
	<g>
		<path d="M490.788,127.373l-72.659,72.659l-21.246-21.246l72.659-72.659l-21.212-21.212l-72.659,72.659l-21.247-21.247
			l72.659-72.659l-21.212-21.212l-72.659,72.659l-21.246-21.246l72.659-72.659L363.416,0.001L227.087,136.329l42.457,42.457
			L143.009,305.321l-52.484-10.027L0,385.818l126.182,126.182l90.523-90.524l-10.026-52.485l126.534-126.535l42.459,42.458
			L512,148.585L490.788,127.373z M126.183,469.576l-83.76-83.759l21.247-21.246l83.759,83.759L126.183,469.576z M168.639,427.119
			L84.88,343.361l15.62-15.62l40.151,7.671l35.937,35.935l7.671,40.152L168.639,427.119z M190.456,342.79l-21.246-21.246
			l121.546-121.546l21.246,21.246L190.456,342.79z M375.672,242.49L269.511,136.329l21.246-21.246l106.161,106.161L375.672,242.49z"
			/>
	</g>
</g>
<g>
</g>
<g>
</g>
<g>
</g>
<g>
</g>
<g>
</g>
<g>
</g>
<g>
</g>
<g>
</g>
<g>
</g>
<g>
</g>
<g>
</g>
<g>
</g>
<g>
</g>
<g>
</g>
<g>
</g>
</svg>
