<?xml version="1.0" encoding="iso-8859-1"?>
<!-- Generator: Adobe Illustrator 19.0.0, SVG Export Plug-In . SVG Version: 6.00 Build 0)  -->
<svg version="1.1" id="Capa_1" xmlns="http://www.w3.org/2000/svg" xmlns:xlink="http://www.w3.org/1999/xlink" x="0px" y="0px"
	 viewBox="0 0 512 512" style="enable-background:new 0 0 512 512;" xml:space="preserve">
<g>
	<g>
		<path d="M271,189.223V133.5h19.795c46.155,0,83.705-37.55,83.705-83.705V0h-49.795C296.281,0,271.137,14.253,256,35.975
			C240.863,14.253,215.719,0,187.295,0H137.5v49.795c0,46.155,37.55,83.705,83.705,83.705H241v55.723H68.149v111.586h32.813
			L131.747,512h248.506l30.785-211.191h32.813V189.223H271z M271,83.705C271,54.092,295.092,30,324.705,30H344.5v19.795
			c0,29.613-24.092,53.705-53.705,53.705H271V83.705z M221.205,103.5c-29.613,0-53.705-24.092-53.705-53.705V30h19.795
			C216.908,30,241,54.092,241,83.705V103.5H221.205z M354.31,482H157.69l-26.412-181.191h249.443L354.31,482z M98.149,270.809
			v-51.586H413.85v51.586H98.149z"/>
	</g>
</g>
<g>
</g>
<g>
</g>
<g>
</g>
<g>
</g>
<g>
</g>
<g>
</g>
<g>
</g>
<g>
</g>
<g>
</g>
<g>
</g>
<g>
</g>
<g>
</g>
<g>
</g>
<g>
</g>
<g>
</g>
</svg>
