<?xml version="1.0" encoding="iso-8859-1"?>
<!-- Generator: Adobe Illustrator 19.0.0, SVG Export Plug-In . SVG Version: 6.00 Build 0)  -->
<svg version="1.1" id="Capa_1" xmlns="http://www.w3.org/2000/svg" xmlns:xlink="http://www.w3.org/1999/xlink" x="0px" y="0px"
	 viewBox="0 0 512 512" style="enable-background:new 0 0 512 512;" xml:space="preserve">
<g>
	<g>
		<path d="M512,284.508c0-49.991-40.671-90.662-90.661-90.662h-27.735l-3.65-30.023h-64.982V94.206
			c0-24.825-20.197-45.023-45.023-45.023s-45.022,20.197-45.022,45.023v69.617h-64.982l-7.751,63.76l-64.771-49.718l19.752-19.752
			l-21.212-21.212L0,232.863l21.212,21.212l17.65-17.648l99.917,183.779l-5.18,42.611h292.698l-10.654-87.646h5.695
			C471.329,375.169,512,334.498,512,284.508z M145.018,368.875L60.981,214.307l15.045-15.045l81.962,62.912L145.018,368.875z
			 M264.925,94.206L264.925,94.206c0-8.284,6.74-15.024,15.024-15.024c8.284,0,15.023,6.74,15.023,15.024v114.027
			c0,8.284-6.739,15.024-15.023,15.024h-0.001c-8.284,0-15.023-6.74-15.023-15.024V94.206z M167.465,432.816l29.051-238.993h38.409
			v14.411c0,24.825,20.197,45.023,45.023,45.023s45.022-20.197,45.022-45.023v-14.411h38.409l29.051,238.993H167.465z
			 M411.997,345.17l-14.748-121.325h24.089c33.449,0,60.662,27.213,60.662,60.662c0,33.449-27.213,60.662-60.662,60.662H411.997z"/>
	</g>
</g>
<g>
</g>
<g>
</g>
<g>
</g>
<g>
</g>
<g>
</g>
<g>
</g>
<g>
</g>
<g>
</g>
<g>
</g>
<g>
</g>
<g>
</g>
<g>
</g>
<g>
</g>
<g>
</g>
<g>
</g>
</svg>
