<?xml version="1.0" encoding="iso-8859-1"?>
<!-- Generator: Adobe Illustrator 19.0.0, SVG Export Plug-In . SVG Version: 6.00 Build 0)  -->
<svg version="1.1" id="Capa_1" xmlns="http://www.w3.org/2000/svg" xmlns:xlink="http://www.w3.org/1999/xlink" x="0px" y="0px"
	 viewBox="0 0 512 512" style="enable-background:new 0 0 512 512;" xml:space="preserve">
<g>
	<g>
		<path d="M512,219.185c0-82.676-67.262-149.938-149.939-149.938c-77.609,0-141.632,59.271-149.188,134.924h-29.428l-2.788,29.017
			l-123.75-88.763L0,201.334L166.22,383.48l-5.694,59.273h301.709l-9.97-103.788C489.831,310.672,512,266.55,512,219.185z
			 M170.092,343.175L41.518,202.282l18.6-18.6l117.218,84.077L170.092,343.175z M193.577,412.725l17.15-178.526h201.307
			l17.151,178.526H193.577z M448.721,302.077l-9.407-97.905H243.09c7.41-59.058,57.937-104.896,118.972-104.896
			c66.12,0,119.911,53.791,119.911,119.91C481.973,250.474,469.868,279.993,448.721,302.077z"/>
	</g>
</g>
<g>
</g>
<g>
</g>
<g>
</g>
<g>
</g>
<g>
</g>
<g>
</g>
<g>
</g>
<g>
</g>
<g>
</g>
<g>
</g>
<g>
</g>
<g>
</g>
<g>
</g>
<g>
</g>
<g>
</g>
</svg>
